<svg width="938" height="165" viewBox="0 0 938 165" fill="none" xmlns="http://www.w3.org/2000/svg">
<g filter="url(#filter0_di_0_1)">
<path d="M176.824 107.912C177.304 107.912 177.856 108.008 178.48 108.2C179.152 108.344 179.752 108.56 180.28 108.848C180.808 109.088 181.24 109.352 181.576 109.64C181.96 109.928 182.152 110.192 182.152 110.432C181.192 112.448 180.304 114.488 179.488 116.552C178.672 118.568 177.976 120.512 177.4 122.384C176.824 124.256 176.368 126.008 176.032 127.64C175.744 129.272 175.6 130.688 175.6 131.888C175.6 133.232 175.744 134.36 176.032 135.272C176.32 136.136 176.8 136.76 177.472 137.144C176.896 137.528 176.152 137.84 175.24 138.08C174.328 138.32 173.512 138.44 172.792 138.44C170.2 138.44 168.904 136.664 168.904 133.112C168.904 130.376 169.816 126.632 171.64 121.88C170.68 124.088 169.576 126.176 168.328 128.144C167.08 130.064 165.808 131.768 164.512 133.256C163.216 134.744 161.896 135.968 160.552 136.928C159.256 137.84 158.056 138.392 156.952 138.584C155.176 138.488 153.736 137.648 152.632 136.064C151.528 134.432 150.976 132.368 150.976 129.872C150.976 127.184 151.552 124.352 152.704 121.376C153.856 118.4 155.32 115.64 157.096 113.096C158.92 110.552 160.888 108.44 163 106.76C165.112 105.032 167.152 104.12 169.12 104.024C169.6 104.168 170.128 104.456 170.704 104.888C171.328 105.32 171.904 105.824 172.432 106.4C173.008 106.976 173.488 107.576 173.872 108.2C174.256 108.776 174.472 109.28 174.52 109.712C172.6 110 170.608 110.936 168.544 112.52C166.528 114.104 164.68 116.024 163 118.28C161.368 120.488 160.024 122.864 158.968 125.408C157.912 127.952 157.384 130.328 157.384 132.536C157.384 133.448 157.72 134.024 158.392 134.264C159.784 133.976 161.392 132.8 163.216 130.736C165.04 128.624 167.248 125.384 169.84 121.016C170.32 120.152 170.848 119.192 171.424 118.136C172.048 117.08 172.672 115.976 173.296 114.824C173.92 113.672 174.52 112.52 175.096 111.368C175.72 110.168 176.296 109.016 176.824 107.912ZM203.228 102.08C204.476 102.464 205.652 103.328 206.756 104.672C207.86 105.968 208.676 107.408 209.204 108.992C208.676 110.288 207.86 111.848 206.756 113.672C205.652 115.496 204.548 117.368 203.444 119.288C202.34 121.16 201.332 122.96 200.42 124.688C199.556 126.368 199.052 127.76 198.908 128.864C199.676 128.048 200.516 127.112 201.428 126.056C202.388 124.952 203.3 123.872 204.164 122.816C205.076 121.712 205.916 120.728 206.684 119.864C207.452 118.952 208.052 118.28 208.484 117.848C209.396 116.888 210.476 115.784 211.724 114.536C212.972 113.24 214.268 112.04 215.612 110.936C217.004 109.784 218.396 108.824 219.788 108.056C221.18 107.24 222.452 106.832 223.604 106.832C224.852 106.832 225.884 107.264 226.7 108.128C227.564 108.944 228.236 109.808 228.716 110.72C228.716 110.816 228.524 110.96 228.14 111.152C227.804 111.296 227.3 111.752 226.628 112.52C225.956 113.384 225.188 114.584 224.324 116.12C223.508 117.608 222.692 119.24 221.876 121.016C221.108 122.744 220.46 124.52 219.932 126.344C219.404 128.168 219.14 129.824 219.14 131.312C219.14 132.512 219.284 133.28 219.572 133.616C219.908 133.952 220.364 134.12 220.94 134.12C221.468 134.12 222.02 134 222.596 133.76C223.172 133.52 223.628 133.4 223.964 133.4C224.156 133.496 224.3 133.712 224.396 134.048C224.54 134.336 224.612 134.6 224.612 134.84C224.228 135.176 223.772 135.512 223.244 135.848C222.716 136.184 222.164 136.496 221.588 136.784C221.012 137.072 220.436 137.312 219.86 137.504C219.332 137.696 218.852 137.792 218.42 137.792C217.028 137.792 215.876 137.576 214.964 137.144C214.1 136.76 213.404 136.232 212.876 135.56C212.396 134.888 212.06 134.096 211.868 133.184C211.676 132.224 211.58 131.216 211.58 130.16C211.58 129.584 211.628 128.936 211.724 128.216C211.82 127.496 212.012 126.656 212.3 125.696C212.588 124.688 212.996 123.512 213.524 122.168C214.052 120.776 214.724 119.12 215.54 117.2C215.444 117.2 214.796 117.536 213.596 118.208C212.396 118.88 211.1 119.912 209.708 121.304C207.452 123.464 205.412 125.6 203.588 127.712C201.812 129.824 199.988 132.176 198.116 134.768C197.06 136.256 196.124 137.504 195.308 138.512C194.54 139.568 193.868 140.264 193.292 140.6C192.284 140.024 191.54 139.208 191.06 138.152C190.58 137.144 190.22 136.088 189.98 134.984C189.98 134.072 190.1 132.92 190.34 131.528C190.628 130.136 190.988 128.6 191.42 126.92C191.9 125.192 192.476 123.392 193.148 121.52C193.82 119.648 194.564 117.776 195.38 115.904C197.204 111.68 198.86 108.368 200.348 105.968C201.884 103.568 202.844 102.272 203.228 102.08ZM251.903 103.376C252.863 103.376 253.967 103.664 255.215 104.24C256.463 104.816 257.567 105.56 258.527 106.472C258.287 104.552 257.975 102.752 257.591 101.072C257.255 99.344 256.727 97.568 256.007 95.744C255.335 93.92 254.423 91.928 253.271 89.768C252.119 87.608 250.679 85.136 248.951 82.352C249.095 81.92 249.407 81.416 249.887 80.84C250.415 80.264 250.991 79.736 251.615 79.256C252.287 78.728 252.959 78.272 253.631 77.888C254.351 77.504 255.023 77.264 255.647 77.168C256.991 78.656 258.263 80.528 259.463 82.784C260.663 84.992 261.719 87.392 262.631 89.984C263.543 92.528 264.239 95.168 264.719 97.904C265.247 100.64 265.511 103.256 265.511 105.752C265.511 108.248 265.223 110.816 264.647 113.456C264.119 116.096 263.351 118.688 262.343 121.232C261.383 123.728 260.255 126.104 258.959 128.36C257.663 130.616 256.247 132.632 254.711 134.408C253.223 136.184 251.663 137.624 250.031 138.728C248.399 139.88 246.767 140.6 245.135 140.888C241.823 140.504 239.279 139.424 237.503 137.648C235.775 135.92 234.911 133.52 234.911 130.448C234.911 128.816 235.151 127.04 235.631 125.12C236.159 123.2 236.831 121.304 237.647 119.432C238.511 117.512 239.495 115.664 240.599 113.888C241.751 112.064 242.951 110.432 244.199 108.992C245.495 107.552 246.791 106.328 248.087 105.32C249.383 104.312 250.655 103.664 251.903 103.376ZM244.559 138.008C246.239 137.432 247.919 136.16 249.599 134.192C251.279 132.224 252.791 129.92 254.135 127.28C255.479 124.592 256.559 121.736 257.375 118.712C258.239 115.64 258.671 112.688 258.671 109.856C258.671 109.04 258.671 108.536 258.671 108.344C258.671 108.152 258.647 107.96 258.599 107.768C257.447 108.248 256.223 109.064 254.927 110.216C253.631 111.368 252.335 112.712 251.039 114.248C249.743 115.736 248.519 117.368 247.367 119.144C246.215 120.92 245.183 122.696 244.271 124.472C243.359 126.248 242.639 127.952 242.111 129.584C241.583 131.216 241.319 132.656 241.319 133.904C241.319 136.304 242.399 137.672 244.559 138.008ZM343.264 88.472C343.408 89.288 343.504 89.864 343.552 90.2C343.648 90.488 343.696 90.896 343.696 91.424C343.696 93.008 343.336 94.496 342.616 95.888C341.944 97.232 341.008 98.192 339.808 98.768C338.848 97.472 337.672 96.368 336.28 95.456C334.888 94.496 333.352 93.728 331.672 93.152C330.04 92.528 328.336 92.072 326.56 91.784C324.784 91.496 323.056 91.352 321.376 91.352C319.696 91.352 318.112 91.496 316.624 91.784C315.184 92.024 313.888 92.384 312.736 92.864C311.632 93.296 310.744 93.848 310.072 94.52C309.448 95.192 309.136 95.96 309.136 96.824C309.28 97.88 309.928 98.96 311.08 100.064C312.232 101.12 313.648 102.176 315.328 103.232C317.008 104.24 318.856 105.248 320.872 106.256C322.936 107.264 324.952 108.224 326.92 109.136C329.368 110.288 331.48 111.368 333.256 112.376C335.032 113.336 336.496 114.416 337.648 115.616C338.8 116.768 339.664 118.088 340.24 119.576C340.816 121.064 341.104 122.864 341.104 124.976C341.104 127.424 340.696 129.728 339.88 131.888C339.064 134 337.864 135.848 336.28 137.432C334.744 139.016 332.872 140.24 330.664 141.104C328.456 142.016 325.984 142.472 323.248 142.472C320.56 142.472 317.656 142.064 314.536 141.248C311.416 140.432 308.488 139.304 305.752 137.864C303.064 136.472 300.808 134.864 298.984 133.04C297.208 131.168 296.32 129.2 296.32 127.136C296.32 126.176 296.584 124.952 297.112 123.464C297.688 121.976 298.696 120.416 300.136 118.784C300.28 120.224 301.048 121.928 302.44 123.896C303.88 125.864 306.016 127.688 308.848 129.368C311.488 130.904 314.2 132.032 316.984 132.752C319.816 133.424 322.456 133.76 324.904 133.76C327.592 133.76 329.776 133.424 331.456 132.752C333.136 132.08 334.456 131.288 335.416 130.376C336.376 129.416 337.048 128.456 337.432 127.496C337.816 126.536 338.032 125.768 338.08 125.192C338.032 124.232 337.576 123.32 336.712 122.456C335.896 121.544 334.768 120.68 333.328 119.864C331.936 119 330.304 118.136 328.432 117.272C326.56 116.408 324.616 115.544 322.6 114.68C319.576 113.336 316.96 112.088 314.752 110.936C312.592 109.736 310.792 108.536 309.352 107.336C307.96 106.088 306.928 104.792 306.256 103.448C305.632 102.104 305.32 100.568 305.32 98.84C305.32 96.152 306.136 93.608 307.768 91.208C309.4 88.808 311.752 86.984 314.824 85.736C316.36 85.064 317.992 84.584 319.72 84.296C321.496 84.008 323.224 83.864 324.904 83.864C328.072 83.864 331.168 84.296 334.192 85.16C337.216 86.024 340.24 87.128 343.264 88.472ZM351.926 132.176C351.926 131.744 351.95 131.216 351.998 130.592C352.094 129.92 352.238 129.056 352.43 128C352.622 126.896 352.862 125.576 353.15 124.04C353.486 122.504 353.894 120.656 354.374 118.496C354.47 118.016 354.686 117.248 355.022 116.192C355.358 115.136 355.79 114.032 356.318 112.88C356.894 111.68 357.566 110.528 358.334 109.424C359.15 108.32 360.11 107.504 361.214 106.976C362.03 107.168 363.11 107.672 364.454 108.488C365.798 109.256 366.95 110.336 367.91 111.728C366.806 112.976 365.87 114.224 365.102 115.472C364.382 116.72 363.71 118.016 363.086 119.36C362.51 120.704 361.958 122.096 361.43 123.536C360.95 124.976 360.398 126.488 359.774 128.072C359.246 129.416 358.766 130.808 358.334 132.248C357.902 133.64 357.662 134.864 357.614 135.92C357.614 136.784 357.59 137.384 357.542 137.72C357.542 138.104 357.422 138.296 357.182 138.296C356.99 138.296 356.606 138.176 356.03 137.936C355.454 137.696 354.854 137.336 354.23 136.856C353.654 136.328 353.126 135.68 352.646 134.912C352.166 134.144 351.926 133.232 351.926 132.176ZM365.678 100.928C365.678 100.64 365.75 100.208 365.894 99.632C365.654 99.392 365.438 99.032 365.246 98.552C365.102 98.072 365.03 97.64 365.03 97.256C365.03 96.824 365.078 96.248 365.174 95.528C365.318 94.76 365.486 93.944 365.678 93.08C365.87 92.216 366.11 91.328 366.398 90.416C366.686 89.456 366.974 88.592 367.262 87.824C367.838 87.824 368.534 87.992 369.35 88.328C370.214 88.616 371.078 89.024 371.942 89.552C372.806 90.032 373.598 90.584 374.318 91.208C375.038 91.784 375.59 92.336 375.974 92.864C375.446 93.392 374.75 94.136 373.886 95.096C373.022 96.008 372.182 96.992 371.366 98.048C370.55 99.056 369.806 100.016 369.134 100.928C368.462 101.84 368.03 102.488 367.838 102.872C367.262 102.776 366.758 102.536 366.326 102.152C365.894 101.72 365.678 101.312 365.678 100.928ZM416.246 114.896C415.478 114.944 414.542 115.448 413.438 116.408C412.334 117.32 411.134 118.52 409.838 120.008C408.59 121.448 407.27 123.056 405.878 124.832C404.534 126.608 403.214 128.384 401.918 130.16C400.67 131.888 399.494 133.52 398.39 135.056C397.286 136.592 396.35 137.816 395.582 138.728C394.526 138.296 393.614 137.672 392.846 136.856C392.078 135.992 391.526 134.936 391.19 133.688C391.43 132.2 391.766 130.664 392.198 129.08C392.63 127.448 393.182 125.768 393.854 124.04C394.574 122.312 395.438 120.512 396.446 118.64C397.502 116.72 398.774 114.704 400.262 112.592C399.542 112.64 398.558 113.168 397.31 114.176C396.062 115.136 394.718 116.408 393.278 117.992C391.838 119.528 390.35 121.28 388.814 123.248C387.278 125.168 385.838 127.064 384.494 128.936C382.718 131.432 381.23 133.616 380.03 135.488C378.878 137.36 378.038 138.464 377.51 138.8C376.262 137.888 375.398 136.904 374.918 135.848C374.438 134.792 374.078 133.616 373.838 132.32C373.886 131.168 374.054 129.728 374.342 128C374.678 126.272 375.134 124.496 375.71 122.672C376.814 119.168 378.23 115.688 379.958 112.232C381.734 108.776 383.438 105.608 385.07 102.728C386.414 103.016 387.614 103.472 388.67 104.096C389.774 104.72 390.926 105.632 392.126 106.832C391.646 108.32 390.902 109.904 389.894 111.584C388.886 113.216 387.83 114.944 386.726 116.768C385.622 118.592 384.614 120.464 383.702 122.384C382.79 124.304 382.19 126.248 381.902 128.216C383.246 126.296 384.83 124.088 386.654 121.592C388.526 119.096 390.422 116.744 392.342 114.536C394.31 112.328 396.254 110.456 398.174 108.92C400.094 107.384 401.822 106.616 403.358 106.616C403.934 106.616 404.558 106.712 405.23 106.904C405.902 107.096 406.526 107.336 407.102 107.624C407.678 107.912 408.158 108.2 408.542 108.488C408.926 108.728 409.142 108.92 409.19 109.064C408.95 110.024 408.374 111.344 407.462 113.024C406.598 114.656 405.662 116.384 404.654 118.208C403.646 120.032 402.71 121.808 401.846 123.536C400.982 125.216 400.478 126.56 400.334 127.568C402.686 124.352 404.894 121.448 406.958 118.856C409.022 116.216 410.966 113.96 412.79 112.088C414.614 110.216 416.294 108.776 417.83 107.768C419.414 106.76 420.902 106.256 422.294 106.256C423.254 106.256 424.142 106.52 424.958 107.048C425.822 107.528 426.422 108.248 426.758 109.208C426.326 110.648 425.606 112.376 424.598 114.392C423.638 116.408 422.654 118.544 421.646 120.8C420.638 123.008 419.726 125.192 418.91 127.352C418.142 129.512 417.758 131.456 417.758 133.184C417.758 134.192 417.902 134.864 418.19 135.2C418.478 135.488 418.886 135.632 419.414 135.632C419.99 135.632 420.518 135.536 420.998 135.344C421.526 135.104 421.91 134.984 422.15 134.984C422.438 135.176 422.606 135.416 422.654 135.704C422.702 135.992 422.726 136.256 422.726 136.496C421.766 137.264 420.782 137.888 419.774 138.368C418.766 138.896 417.638 139.16 416.39 139.16C415.238 139.16 414.278 138.968 413.51 138.584C412.79 138.2 412.19 137.672 411.71 137C411.23 136.328 410.894 135.56 410.702 134.696C410.51 133.832 410.414 132.896 410.414 131.888C410.414 130.256 410.63 128.648 411.062 127.064C411.494 125.432 411.998 123.896 412.574 122.456C413.198 120.968 413.846 119.6 414.518 118.352C415.19 117.056 415.766 115.904 416.246 114.896ZM430.189 160.832C429.517 160.64 429.133 159.92 429.037 158.672C428.845 158.048 428.701 157.304 428.605 156.44C428.557 155.576 428.533 154.592 428.533 153.488C428.533 152.48 428.701 151.088 429.037 149.312C429.373 147.584 429.829 145.616 430.405 143.408C431.029 141.2 431.773 138.824 432.637 136.28C433.501 133.688 434.461 131.072 435.517 128.432C436.813 125.12 437.941 122.264 438.901 119.864C439.861 117.416 440.653 115.304 441.277 113.528C441.949 111.752 442.477 110.288 442.861 109.136C443.293 107.984 443.629 107 443.869 106.184C444.061 105.608 444.349 104.912 444.733 104.096C445.117 103.28 445.549 102.464 446.029 101.648C446.557 100.784 447.085 99.992 447.613 99.272C448.141 98.504 448.621 97.928 449.053 97.544C450.733 97.784 452.317 98.216 453.805 98.84C455.293 99.464 456.205 100.064 456.541 100.64C455.869 101.264 455.101 102.248 454.237 103.592C453.373 104.888 452.533 106.328 451.717 107.912C450.901 109.448 450.157 111.032 449.485 112.664C448.813 114.296 448.309 115.736 447.973 116.984C448.453 116.168 449.077 115.28 449.845 114.32C450.613 113.36 451.789 112.04 453.373 110.36C455.149 108.536 456.805 107.144 458.341 106.184C459.925 105.176 461.293 104.672 462.445 104.672C464.269 104.672 465.757 105.176 466.909 106.184C468.109 107.192 468.709 108.488 468.709 110.072C468.709 113.528 468.133 116.96 466.981 120.368C465.829 123.728 464.173 126.776 462.013 129.512C461.197 130.568 460.237 131.576 459.133 132.536C458.029 133.496 456.877 134.36 455.677 135.128C454.477 135.848 453.301 136.424 452.149 136.856C450.997 137.288 449.965 137.504 449.053 137.504C448.189 137.504 447.421 137.336 446.749 137C446.125 136.616 445.693 136.16 445.453 135.632C447.325 134.528 449.149 132.992 450.925 131.024C452.701 129.056 454.333 126.8 455.821 124.256C457.357 121.664 458.677 118.88 459.781 115.904C460.933 112.928 461.797 109.904 462.373 106.832C460.549 107.792 458.893 108.848 457.405 110C455.965 111.104 454.525 112.568 453.085 114.392C451.357 116.504 449.989 118.208 448.981 119.504C447.973 120.8 447.133 121.904 446.461 122.816C445.837 123.728 445.309 124.592 444.877 125.408C444.493 126.176 444.061 127.136 443.581 128.288C442.909 129.824 442.117 131.864 441.205 134.408C440.341 136.904 439.429 139.712 438.469 142.832C437.557 145.952 436.621 149.264 435.661 152.768C434.749 156.32 433.861 159.848 432.997 163.352C432.469 163.256 432.013 162.872 431.629 162.2C431.245 161.768 430.957 161.456 430.765 161.264C430.621 161.072 430.429 160.928 430.189 160.832ZM476.992 132.392C476.992 130.28 477.496 127.328 478.504 123.536C479.512 119.696 480.928 115.232 482.752 110.144C485.728 102.032 488.512 95.288 491.104 89.912C493.744 84.488 496.312 80.264 498.808 77.24C499.384 77.336 500.08 77.576 500.896 77.96C501.76 78.344 502.6 78.776 503.416 79.256C504.232 79.688 504.952 80.144 505.576 80.624C506.248 81.104 506.68 81.488 506.872 81.776C503.128 86.192 499.84 90.944 497.008 96.032C494.176 101.12 491.584 106.952 489.232 113.528C487.216 119.192 485.68 124.304 484.624 128.864C483.568 133.376 483.04 137.144 483.04 140.168C483.04 140.984 483.04 141.488 483.04 141.68C483.04 141.872 483.064 142.064 483.112 142.256C482.44 142.16 481.864 141.992 481.384 141.752C480.904 141.512 480.592 141.224 480.448 140.888C480.352 140.648 480.088 140.288 479.656 139.808C479.224 139.376 478.84 139.04 478.504 138.8C478.072 138.512 477.712 137.768 477.424 136.568C477.136 135.32 476.992 133.928 476.992 132.392ZM525.334 107.192C525.142 110.168 524.614 112.736 523.75 114.896C522.886 117.008 521.638 118.88 520.006 120.512C518.422 122.096 516.478 123.536 514.174 124.832C511.87 126.128 509.182 127.376 506.11 128.576C506.11 128.864 506.086 129.176 506.038 129.512C506.038 129.8 506.038 130.112 506.038 130.448C506.038 131.072 506.086 131.72 506.182 132.392C506.278 133.064 506.446 133.688 506.686 134.264C506.926 134.84 507.262 135.32 507.694 135.704C508.126 136.04 508.678 136.208 509.35 136.208C510.646 136.208 511.918 135.92 513.166 135.344C514.414 134.768 515.59 134.072 516.694 133.256C517.846 132.392 518.902 131.48 519.862 130.52C520.87 129.512 521.758 128.6 522.526 127.784C523.006 128.216 523.414 128.624 523.75 129.008C521.59 131.888 519.214 134.288 516.622 136.208C514.078 138.08 511.654 139.28 509.35 139.808C506.038 139.424 503.446 138.224 501.574 136.208C499.75 134.144 498.838 131.672 498.838 128.792C498.838 126.824 499.102 124.832 499.63 122.816C500.206 120.752 500.974 118.784 501.934 116.912C502.942 114.992 504.094 113.192 505.39 111.512C506.734 109.832 508.15 108.368 509.638 107.12C511.174 105.872 512.734 104.888 514.318 104.168C515.95 103.448 517.558 103.088 519.142 103.088C521.35 103.376 523.414 104.744 525.334 107.192ZM520.366 109.568C519.07 109.76 517.726 110.288 516.334 111.152C514.942 112.016 513.622 113.168 512.374 114.608C511.174 116.048 510.07 117.728 509.062 119.648C508.054 121.568 507.262 123.632 506.686 125.84C510.526 123.92 513.718 121.568 516.262 118.784C518.806 115.952 520.174 112.88 520.366 109.568ZM606.592 97.328C606.592 99.632 606.064 101.816 605.008 103.88C604 105.896 602.584 107.72 600.76 109.352C598.936 110.936 596.8 112.28 594.352 113.384C591.904 114.488 589.24 115.232 586.36 115.616C587.08 117.776 587.944 120.008 588.952 122.312C590.008 124.568 591.136 126.752 592.336 128.864C593.536 130.976 594.784 132.92 596.08 134.696C597.376 136.472 598.648 137.936 599.896 139.088C599.656 139.568 599.296 140.048 598.816 140.528C598.384 141.008 597.856 141.44 597.232 141.824C596.656 142.256 596.032 142.592 595.36 142.832C594.736 143.12 594.136 143.264 593.56 143.264C592.504 143.264 591.496 142.76 590.536 141.752C589.576 140.744 588.592 139.16 587.584 137C586.624 134.792 585.592 131.96 584.488 128.504C583.432 125 582.256 120.8 580.96 115.904C580.432 115.904 579.904 115.904 579.376 115.904C578.848 115.904 578.44 115.856 578.152 115.76C577.816 115.568 577.456 115.232 577.072 114.752C575.776 117.536 574.624 120.152 573.616 122.6C572.608 125.048 571.696 127.424 570.88 129.728C570.112 131.984 569.416 134.192 568.792 136.352C568.216 138.464 567.712 140.624 567.28 142.832C565.648 142.448 564.232 141.752 563.032 140.744C561.832 139.736 560.704 138.32 559.648 136.496C559.84 136.064 560.032 135.656 560.224 135.272C560.464 134.84 560.752 134.264 561.088 133.544C561.424 132.776 561.832 131.816 562.312 130.664C562.84 129.512 563.512 127.976 564.328 126.056C565.192 124.136 566.2 121.784 567.352 119C568.552 116.216 569.992 112.832 571.672 108.848C572.44 107.072 573.088 105.512 573.616 104.168C574.192 102.824 574.696 101.552 575.128 100.352C575.56 99.104 575.944 97.88 576.28 96.68C576.664 95.432 577.048 94.016 577.432 92.432C575.224 93.2 573.16 94.064 571.24 95.024C569.368 95.936 567.808 96.92 566.56 97.976C566.128 97.688 565.672 97.256 565.192 96.68C564.76 96.104 564.352 95.48 563.968 94.808C563.584 94.088 563.248 93.368 562.96 92.648C562.672 91.928 562.504 91.28 562.456 90.704C563.896 89.744 565.648 88.856 567.712 88.04C569.824 87.224 572.056 86.528 574.408 85.952C576.76 85.328 579.16 84.848 581.608 84.512C584.056 84.176 586.336 84.008 588.448 84.008C594.208 84.008 598.672 85.208 601.84 87.608C605.008 89.96 606.592 93.2 606.592 97.328ZM589.024 91.28C588.688 91.712 588.16 92.576 587.44 93.872C586.72 95.168 585.88 96.728 584.92 98.552C584.008 100.328 583.024 102.272 581.968 104.384C580.96 106.496 579.976 108.584 579.016 110.648C582.616 110.648 585.928 110.312 588.952 109.64C591.976 108.968 594.592 108.032 596.8 106.832C599.008 105.584 600.712 104.144 601.912 102.512C603.16 100.832 603.784 98.984 603.784 96.968C603.784 94.568 602.92 92.744 601.192 91.496C599.464 90.2 596.8 89.552 593.2 89.552C592.384 89.552 591.568 89.6 590.752 89.696C589.936 89.744 589.072 89.816 588.16 89.912L589.024 91.28ZM635.638 107.192C635.446 110.168 634.918 112.736 634.054 114.896C633.19 117.008 631.942 118.88 630.31 120.512C628.726 122.096 626.782 123.536 624.478 124.832C622.174 126.128 619.486 127.376 616.414 128.576C616.414 128.864 616.39 129.176 616.342 129.512C616.342 129.8 616.342 130.112 616.342 130.448C616.342 131.072 616.39 131.72 616.486 132.392C616.582 133.064 616.75 133.688 616.99 134.264C617.23 134.84 617.566 135.32 617.998 135.704C618.43 136.04 618.982 136.208 619.654 136.208C620.95 136.208 622.222 135.92 623.47 135.344C624.718 134.768 625.894 134.072 626.998 133.256C628.15 132.392 629.206 131.48 630.166 130.52C631.174 129.512 632.062 128.6 632.83 127.784C633.31 128.216 633.718 128.624 634.054 129.008C631.894 131.888 629.518 134.288 626.926 136.208C624.382 138.08 621.958 139.28 619.654 139.808C616.342 139.424 613.75 138.224 611.878 136.208C610.054 134.144 609.142 131.672 609.142 128.792C609.142 126.824 609.406 124.832 609.934 122.816C610.51 120.752 611.278 118.784 612.238 116.912C613.246 114.992 614.398 113.192 615.694 111.512C617.038 109.832 618.454 108.368 619.942 107.12C621.478 105.872 623.038 104.888 624.622 104.168C626.254 103.448 627.862 103.088 629.446 103.088C631.654 103.376 633.718 104.744 635.638 107.192ZM630.67 109.568C629.374 109.76 628.03 110.288 626.638 111.152C625.246 112.016 623.926 113.168 622.678 114.608C621.478 116.048 620.374 117.728 619.366 119.648C618.358 121.568 617.566 123.632 616.99 125.84C620.83 123.92 624.022 121.568 626.566 118.784C629.11 115.952 630.478 112.88 630.67 109.568ZM669.571 107.912C670.051 107.912 670.603 108.008 671.227 108.2C671.899 108.344 672.499 108.56 673.027 108.848C673.555 109.088 673.987 109.352 674.323 109.64C674.707 109.928 674.899 110.192 674.899 110.432C673.939 112.448 673.051 114.488 672.235 116.552C671.419 118.568 670.723 120.512 670.147 122.384C669.571 124.256 669.115 126.008 668.779 127.64C668.491 129.272 668.347 130.688 668.347 131.888C668.347 133.232 668.491 134.36 668.779 135.272C669.067 136.136 669.547 136.76 670.219 137.144C669.643 137.528 668.899 137.84 667.987 138.08C667.075 138.32 666.259 138.44 665.539 138.44C662.947 138.44 661.651 136.664 661.651 133.112C661.651 130.376 662.563 126.632 664.387 121.88C663.427 124.088 662.323 126.176 661.075 128.144C659.827 130.064 658.555 131.768 657.259 133.256C655.963 134.744 654.643 135.968 653.299 136.928C652.003 137.84 650.803 138.392 649.699 138.584C647.923 138.488 646.483 137.648 645.379 136.064C644.275 134.432 643.723 132.368 643.723 129.872C643.723 127.184 644.299 124.352 645.451 121.376C646.603 118.4 648.067 115.64 649.843 113.096C651.667 110.552 653.635 108.44 655.747 106.76C657.859 105.032 659.899 104.12 661.867 104.024C662.347 104.168 662.875 104.456 663.451 104.888C664.075 105.32 664.651 105.824 665.179 106.4C665.755 106.976 666.235 107.576 666.619 108.2C667.003 108.776 667.219 109.28 667.267 109.712C665.347 110 663.355 110.936 661.291 112.52C659.275 114.104 657.427 116.024 655.747 118.28C654.115 120.488 652.771 122.864 651.715 125.408C650.659 127.952 650.131 130.328 650.131 132.536C650.131 133.448 650.467 134.024 651.139 134.264C652.531 133.976 654.139 132.8 655.963 130.736C657.787 128.624 659.995 125.384 662.587 121.016C663.067 120.152 663.595 119.192 664.171 118.136C664.795 117.08 665.419 115.976 666.043 114.824C666.667 113.672 667.267 112.52 667.843 111.368C668.467 110.168 669.043 109.016 669.571 107.912ZM684.24 132.392C684.24 130.28 684.744 127.328 685.752 123.536C686.76 119.696 688.176 115.232 690 110.144C692.976 102.032 695.76 95.288 698.352 89.912C700.992 84.488 703.56 80.264 706.056 77.24C706.632 77.336 707.328 77.576 708.144 77.96C709.008 78.344 709.848 78.776 710.664 79.256C711.48 79.688 712.2 80.144 712.824 80.624C713.496 81.104 713.928 81.488 714.12 81.776C710.376 86.192 707.088 90.944 704.256 96.032C701.424 101.12 698.832 106.952 696.48 113.528C694.464 119.192 692.928 124.304 691.872 128.864C690.816 133.376 690.288 137.144 690.288 140.168C690.288 140.984 690.288 141.488 690.288 141.68C690.288 141.872 690.312 142.064 690.36 142.256C689.688 142.16 689.112 141.992 688.632 141.752C688.152 141.512 687.84 141.224 687.696 140.888C687.6 140.648 687.336 140.288 686.904 139.808C686.472 139.376 686.088 139.04 685.752 138.8C685.32 138.512 684.96 137.768 684.672 136.568C684.384 135.32 684.24 133.928 684.24 132.392ZM760.027 106.328C761.611 106.328 762.835 106.76 763.699 107.624C764.611 108.488 765.067 109.688 765.067 111.224C765.067 111.608 765.019 112.016 764.923 112.448C764.875 112.832 764.803 113.168 764.707 113.456C764.083 113.36 763.387 113.288 762.619 113.24C761.851 113.144 760.939 113.096 759.883 113.096C757.819 113.096 755.731 113.288 753.619 113.672C751.507 114.008 749.491 114.296 747.571 114.536C746.467 117.08 745.459 119.552 744.547 121.952C743.635 124.304 742.843 126.464 742.171 128.432C741.547 130.4 741.043 132.104 740.659 133.544C740.323 134.984 740.131 136.064 740.083 136.784C743.971 135.968 747.883 135.272 751.819 134.696C755.803 134.12 759.979 133.688 764.347 133.4C764.875 134.216 765.307 135.104 765.643 136.064C766.027 137.024 766.219 138.056 766.219 139.16C766.219 139.448 766.219 139.76 766.219 140.096C766.219 140.432 766.171 140.768 766.075 141.104C764.731 141.056 763.315 141.008 761.827 140.96C760.339 140.96 758.395 140.96 755.995 140.96C754.411 140.96 752.899 140.984 751.459 141.032C750.067 141.128 748.651 141.248 747.211 141.392C745.771 141.536 744.235 141.728 742.603 141.968C741.019 142.208 739.219 142.496 737.203 142.832C734.995 141.968 732.859 139.856 730.795 136.496C731.611 134.768 732.739 132.152 734.179 128.648C735.667 125.096 737.539 120.368 739.795 114.464C737.635 113.792 736.219 112.592 735.547 110.864C735.787 110.624 736.483 110.336 737.635 110C738.787 109.616 740.203 109.232 741.883 108.848C742.603 106.976 743.203 105.344 743.683 103.952C744.211 102.56 744.667 101.264 745.051 100.064C745.435 98.816 745.771 97.616 746.059 96.464C746.395 95.264 746.707 93.968 746.995 92.576C745.315 92.48 743.995 92.024 743.035 91.208C742.075 90.344 741.595 89.24 741.595 87.896C741.595 87.512 741.643 87.056 741.739 86.528C741.883 86 742.027 85.544 742.171 85.16C743.131 85.304 744.043 85.4 744.907 85.448C745.819 85.496 746.995 85.52 748.435 85.52C751.459 85.52 754.291 85.448 756.931 85.304C759.571 85.112 761.947 84.92 764.059 84.728C766.219 84.536 768.067 84.368 769.603 84.224C771.139 84.032 772.315 83.936 773.131 83.936C774.235 83.936 775.219 84.512 776.083 85.664C776.947 86.816 777.595 88.448 778.027 90.56C776.539 90.416 775.315 90.32 774.355 90.272C773.443 90.224 772.627 90.2 771.907 90.2C769.267 90.2 766.843 90.344 764.635 90.632C762.475 90.872 760.387 91.136 758.371 91.424C758.083 91.856 757.747 92.408 757.363 93.08C757.027 93.752 756.571 94.688 755.995 95.888C755.419 97.088 754.699 98.6 753.835 100.424C753.019 102.248 752.011 104.528 750.811 107.264C752.635 106.976 754.339 106.76 755.923 106.616C757.555 106.424 758.923 106.328 760.027 106.328ZM804.478 108.344C804.43 109.256 804.262 110.216 803.974 111.224C803.734 112.184 803.422 113.072 803.038 113.888C802.654 114.656 802.246 115.304 801.814 115.832C801.382 116.36 800.974 116.624 800.59 116.624C800.062 116.576 799.75 116.216 799.654 115.544C799.654 115.4 799.702 115.184 799.798 114.896C799.942 114.56 800.086 114.2 800.23 113.816C800.374 113.432 800.494 113.048 800.59 112.664C800.734 112.28 800.806 111.944 800.806 111.656C800.806 110.984 800.638 110.432 800.302 110C800.014 109.52 799.606 109.28 799.078 109.28C797.158 109.28 795.694 110.48 794.686 112.88C793.678 115.28 793.174 118.808 793.174 123.464C793.174 123.944 793.198 124.232 793.246 124.328C794.254 124.28 795.142 124.256 795.91 124.256C796.726 124.208 797.518 124.184 798.286 124.184C798.334 124.28 798.358 124.472 798.358 124.76C798.358 125.192 798.262 125.504 798.07 125.696C796.966 125.936 796.078 126.152 795.406 126.344C794.782 126.488 794.302 126.632 793.966 126.776C793.63 126.92 793.414 127.088 793.318 127.28C793.27 127.424 793.246 127.64 793.246 127.928C793.246 128.312 793.246 128.696 793.246 129.08C793.294 129.464 793.318 129.944 793.318 130.52C793.318 134.552 792.214 137.792 790.006 140.24C787.846 142.688 784.822 144.104 780.934 144.488C780.262 144.44 779.566 144.248 778.846 143.912C778.126 143.576 777.43 143.144 776.758 142.616C776.134 142.088 775.582 141.488 775.102 140.816C774.622 140.192 774.286 139.544 774.094 138.872C774.094 137.048 774.478 135.32 775.246 133.688C776.014 132.008 777.046 130.544 778.342 129.296C779.686 128 781.246 126.968 783.022 126.2C784.846 125.384 786.814 124.904 788.926 124.76C788.926 123.56 788.806 122.384 788.566 121.232C788.326 120.08 788.062 118.976 787.774 117.92C787.534 116.816 787.294 115.76 787.054 114.752C786.814 113.696 786.694 112.664 786.694 111.656C786.694 110.36 786.958 109.088 787.486 107.84C788.014 106.544 788.71 105.368 789.574 104.312C790.438 103.208 791.446 102.272 792.598 101.504C793.75 100.736 794.95 100.208 796.198 99.92C796.726 100.064 797.422 100.496 798.286 101.216C799.198 101.888 800.086 102.656 800.95 103.52C801.814 104.384 802.582 105.272 803.254 106.184C803.926 107.048 804.334 107.768 804.478 108.344ZM780.718 141.176C781.87 140.696 782.95 140 783.958 139.088C785.014 138.176 785.926 137.144 786.694 135.992C787.462 134.84 788.062 133.616 788.494 132.32C788.974 131.024 789.214 129.752 789.214 128.504C788.254 128.648 787.198 129.104 786.046 129.872C784.894 130.592 783.814 131.48 782.806 132.536C781.798 133.544 780.958 134.6 780.286 135.704C779.614 136.808 779.278 137.768 779.278 138.584C779.278 139.64 779.758 140.504 780.718 141.176ZM814.537 109.424C814.297 109.136 814.081 108.536 813.889 107.624C813.697 106.664 813.601 105.848 813.601 105.176C814.849 105.272 816.049 105.368 817.201 105.464C818.353 105.512 819.409 105.56 820.369 105.608C821.089 104.168 821.857 102.752 822.673 101.36C823.537 99.92 824.353 98.624 825.121 97.472C825.937 96.272 826.681 95.264 827.353 94.448C828.073 93.632 828.625 93.104 829.009 92.864C829.489 92.864 830.089 92.96 830.809 93.152C831.577 93.296 832.345 93.512 833.113 93.8C833.881 94.04 834.577 94.304 835.201 94.592C835.825 94.88 836.257 95.168 836.497 95.456C835.057 97.28 833.809 98.984 832.753 100.568C831.745 102.104 830.641 103.88 829.441 105.896C830.401 105.896 831.361 105.872 832.321 105.824C833.329 105.776 834.337 105.704 835.345 105.608C835.585 105.848 835.777 106.16 835.921 106.544C836.065 106.88 836.137 107.24 836.137 107.624C833.785 108.488 830.929 108.968 827.569 109.064C826.369 111.368 825.289 113.672 824.329 115.976C823.417 118.232 822.625 120.416 821.953 122.528C821.329 124.64 820.825 126.632 820.441 128.504C820.105 130.376 819.937 132.056 819.937 133.544C819.937 135.656 820.729 136.832 822.313 137.072C823.753 136.88 825.121 136.52 826.417 135.992C827.713 135.464 828.865 134.792 829.873 133.976C830.161 134.408 830.329 134.768 830.377 135.056C830.089 135.488 829.585 135.992 828.865 136.568C828.193 137.144 827.449 137.696 826.633 138.224C825.817 138.8 825.025 139.28 824.257 139.664C823.489 140.048 822.913 140.264 822.529 140.312C821.329 140.264 820.129 140 818.929 139.52C817.729 139.04 816.625 138.44 815.617 137.72C814.657 137 813.865 136.208 813.241 135.344C812.617 134.432 812.305 133.544 812.305 132.68C812.305 131.528 812.449 130.088 812.737 128.36C813.073 126.584 813.529 124.664 814.105 122.6C814.681 120.536 815.353 118.376 816.121 116.12C816.889 113.864 817.729 111.632 818.641 109.424H814.537ZM866.202 107.912C866.682 107.912 867.234 108.008 867.858 108.2C868.53 108.344 869.13 108.56 869.658 108.848C870.186 109.088 870.618 109.352 870.954 109.64C871.338 109.928 871.53 110.192 871.53 110.432C870.57 112.448 869.682 114.488 868.866 116.552C868.05 118.568 867.354 120.512 866.778 122.384C866.202 124.256 865.746 126.008 865.41 127.64C865.122 129.272 864.978 130.688 864.978 131.888C864.978 133.232 865.122 134.36 865.41 135.272C865.698 136.136 866.178 136.76 866.85 137.144C866.274 137.528 865.53 137.84 864.618 138.08C863.706 138.32 862.89 138.44 862.17 138.44C859.578 138.44 858.282 136.664 858.282 133.112C858.282 130.376 859.194 126.632 861.018 121.88C860.058 124.088 858.954 126.176 857.706 128.144C856.458 130.064 855.186 131.768 853.89 133.256C852.594 134.744 851.274 135.968 849.93 136.928C848.634 137.84 847.434 138.392 846.33 138.584C844.554 138.488 843.114 137.648 842.01 136.064C840.906 134.432 840.354 132.368 840.354 129.872C840.354 127.184 840.93 124.352 842.082 121.376C843.234 118.4 844.698 115.64 846.474 113.096C848.298 110.552 850.266 108.44 852.378 106.76C854.49 105.032 856.53 104.12 858.498 104.024C858.978 104.168 859.506 104.456 860.082 104.888C860.706 105.32 861.282 105.824 861.81 106.4C862.386 106.976 862.866 107.576 863.25 108.2C863.634 108.776 863.85 109.28 863.898 109.712C861.978 110 859.986 110.936 857.922 112.52C855.906 114.104 854.058 116.024 852.378 118.28C850.746 120.488 849.402 122.864 848.346 125.408C847.29 127.952 846.762 130.328 846.762 132.536C846.762 133.448 847.098 134.024 847.77 134.264C849.162 133.976 850.77 132.8 852.594 130.736C854.418 128.624 856.626 125.384 859.218 121.016C859.698 120.152 860.226 119.192 860.802 118.136C861.426 117.08 862.05 115.976 862.674 114.824C863.298 113.672 863.898 112.52 864.474 111.368C865.098 110.168 865.674 109.016 866.202 107.912ZM883.995 109.424C883.755 109.136 883.539 108.536 883.347 107.624C883.155 106.664 883.059 105.848 883.059 105.176C884.307 105.272 885.507 105.368 886.659 105.464C887.811 105.512 888.867 105.56 889.827 105.608C890.547 104.168 891.315 102.752 892.131 101.36C892.995 99.92 893.811 98.624 894.579 97.472C895.395 96.272 896.139 95.264 896.811 94.448C897.531 93.632 898.083 93.104 898.467 92.864C898.947 92.864 899.547 92.96 900.267 93.152C901.035 93.296 901.803 93.512 902.571 93.8C903.339 94.04 904.035 94.304 904.659 94.592C905.283 94.88 905.715 95.168 905.955 95.456C904.515 97.28 903.267 98.984 902.211 100.568C901.203 102.104 900.099 103.88 898.899 105.896C899.859 105.896 900.819 105.872 901.779 105.824C902.787 105.776 903.795 105.704 904.803 105.608C905.043 105.848 905.235 106.16 905.379 106.544C905.523 106.88 905.595 107.24 905.595 107.624C903.243 108.488 900.387 108.968 897.027 109.064C895.827 111.368 894.747 113.672 893.787 115.976C892.875 118.232 892.083 120.416 891.411 122.528C890.787 124.64 890.283 126.632 889.899 128.504C889.563 130.376 889.395 132.056 889.395 133.544C889.395 135.656 890.187 136.832 891.771 137.072C893.211 136.88 894.579 136.52 895.875 135.992C897.171 135.464 898.323 134.792 899.331 133.976C899.619 134.408 899.787 134.768 899.835 135.056C899.547 135.488 899.043 135.992 898.323 136.568C897.651 137.144 896.907 137.696 896.091 138.224C895.275 138.8 894.483 139.28 893.715 139.664C892.947 140.048 892.371 140.264 891.987 140.312C890.787 140.264 889.587 140 888.387 139.52C887.187 139.04 886.083 138.44 885.075 137.72C884.115 137 883.323 136.208 882.699 135.344C882.075 134.432 881.763 133.544 881.763 132.68C881.763 131.528 881.907 130.088 882.195 128.36C882.531 126.584 882.987 124.664 883.563 122.6C884.139 120.536 884.811 118.376 885.579 116.12C886.347 113.864 887.187 111.632 888.099 109.424H883.995ZM936.595 107.192C936.403 110.168 935.875 112.736 935.011 114.896C934.147 117.008 932.899 118.88 931.267 120.512C929.683 122.096 927.739 123.536 925.435 124.832C923.131 126.128 920.443 127.376 917.371 128.576C917.371 128.864 917.347 129.176 917.299 129.512C917.299 129.8 917.299 130.112 917.299 130.448C917.299 131.072 917.347 131.72 917.443 132.392C917.539 133.064 917.707 133.688 917.947 134.264C918.187 134.84 918.523 135.32 918.955 135.704C919.387 136.04 919.939 136.208 920.611 136.208C921.907 136.208 923.179 135.92 924.427 135.344C925.675 134.768 926.851 134.072 927.955 133.256C929.107 132.392 930.163 131.48 931.123 130.52C932.131 129.512 933.019 128.6 933.787 127.784C934.267 128.216 934.675 128.624 935.011 129.008C932.851 131.888 930.475 134.288 927.883 136.208C925.339 138.08 922.915 139.28 920.611 139.808C917.299 139.424 914.707 138.224 912.835 136.208C911.011 134.144 910.099 131.672 910.099 128.792C910.099 126.824 910.363 124.832 910.891 122.816C911.467 120.752 912.235 118.784 913.195 116.912C914.203 114.992 915.355 113.192 916.651 111.512C917.995 109.832 919.411 108.368 920.899 107.12C922.435 105.872 923.995 104.888 925.579 104.168C927.211 103.448 928.819 103.088 930.403 103.088C932.611 103.376 934.675 104.744 936.595 107.192ZM931.627 109.568C930.331 109.76 928.987 110.288 927.595 111.152C926.203 112.016 924.883 113.168 923.635 114.608C922.435 116.048 921.331 117.728 920.323 119.648C919.315 121.568 918.523 123.632 917.947 125.84C921.787 123.92 924.979 121.568 927.523 118.784C930.067 115.952 931.435 112.88 931.627 109.568Z" fill="#3CBAD8"/>
</g>
<g filter="url(#filter1_di_0_1)">
<path d="M65.3717 72.0112C68.5626 71.7693 71.1235 72.4777 73.0544 74.1364C75.0851 75.7876 76.2214 78.2086 76.4633 81.3995C76.5238 82.1972 76.5382 83.0485 76.5066 83.9535C76.4673 84.7588 76.3208 85.4719 76.0671 86.0929C74.7557 85.9917 73.2985 85.9518 71.6955 85.9731C70.085 85.8946 68.1828 85.9385 65.9891 86.1049C61.502 86.4451 57.0451 87.1842 52.6185 88.3222C48.1919 89.4601 43.9533 90.4334 39.9029 91.242C36.2172 102.152 33.2801 112.353 31.0916 121.846C28.9031 131.338 27.3551 140.682 26.4478 149.877C22.997 149.337 19.8959 148.118 17.1446 146.22C14.3933 144.323 11.7272 141.566 9.1465 137.951C9.72352 136.303 10.4274 134.344 11.2582 132.075C12.0815 129.706 13.0625 126.773 14.2015 123.277C15.3328 119.681 16.6605 115.368 18.1846 110.339C19.8008 105.202 21.6942 99.0912 23.8648 92.0068C19.571 90.9284 16.6436 88.6933 15.0827 85.3016C15.5434 84.7652 16.8978 84.111 19.1459 83.3388C21.3864 82.4669 24.1217 81.5073 27.3517 80.4601C28.5526 76.4578 29.588 72.9194 30.458 69.8448C31.3205 66.6705 32.0983 63.7032 32.7916 60.9429C33.4773 58.0829 34.0709 55.3301 34.5723 52.6846C35.1659 49.9319 35.6484 47.0371 36.0198 44.0003L35.272 44.057C31.4828 44.3444 28.3237 43.6813 25.7944 42.0679C23.3649 40.447 22.0405 38.1907 21.8213 35.299C21.7608 34.5013 21.7887 33.5464 21.9049 32.4345C22.1209 31.3149 22.3981 30.3412 22.7364 29.5132C24.6537 29.6687 26.5135 29.7283 28.3159 29.6919C30.218 29.6479 32.6648 29.5125 35.6562 29.2857C41.9382 28.8094 47.8099 28.2137 53.2715 27.4987C58.7255 26.684 63.6311 25.9109 67.9883 25.1793C72.4452 24.4402 76.2577 23.8001 79.4258 23.259C82.5864 22.6182 85.0143 22.2336 86.7094 22.105C89.0028 21.9311 91.1377 22.9727 93.114 25.2297C95.0903 27.4867 96.7434 30.7712 98.0732 35.083C94.8597 35.0258 92.252 35.0229 90.2502 35.0744C88.3481 35.1184 86.6491 35.1971 85.1534 35.3105C80.068 35.6961 75.4004 36.3007 71.1505 37.1244C66.9928 37.8408 63.042 38.6419 59.2983 39.5275C58.768 40.4702 58.157 41.6699 57.4651 43.1264C56.873 44.5753 56.0769 46.6414 55.0769 49.3247C54.0694 51.9082 52.7734 55.316 51.1888 59.5479C49.7039 63.7723 47.8037 69.1313 45.4881 75.625C49.3315 74.7318 52.9831 73.9535 56.4429 73.29C60.0023 72.6189 62.9786 72.1927 65.3717 72.0112Z" fill="#F07300"/>
</g>
<g filter="url(#filter2_di_0_1)">
<path d="M144.333 75.9583C142.389 75.0329 140.861 73.6407 139.748 71.7816C138.719 69.9006 138.018 68.2474 137.646 66.8219C137.186 65.061 137.001 63.4969 137.092 62.1296C136.756 62.2172 136.177 63.0852 135.353 64.7336C134.53 66.3819 133.647 68.3147 132.703 70.5319C131.844 72.7271 130.973 74.8805 130.091 76.9919C129.21 79.1033 128.543 80.6659 128.091 81.6797C127.308 83.1385 126.501 84.3347 125.67 85.2684C124.923 86.1802 124.267 86.7547 123.702 86.992C122.338 87.2586 120.836 87.3376 119.195 87.2288C117.66 87.182 116.112 86.9146 114.552 86.4267C113.075 85.9168 111.68 85.2063 110.367 84.2953C109.138 83.3624 108.158 82.1851 107.429 80.7634C106.815 78.4155 106.353 76.476 106.043 74.9447C105.816 73.3916 105.682 71.6798 105.642 69.8093C105.564 66.4258 105.712 62.5354 106.086 58.138C106.543 53.7188 107.233 49.3286 108.153 44.9675C109.052 40.5226 110.237 36.3164 111.709 32.3489C113.242 28.2756 115.099 24.9241 117.278 22.2945C118.033 22.0973 118.935 21.9511 119.985 21.8559C121.013 21.6768 122.074 21.6236 123.168 21.6961C124.346 21.7467 125.462 21.903 126.515 22.1651C127.631 22.3215 128.623 22.6894 129.491 23.2688C128.956 24.3045 127.761 27.6174 125.907 33.2076C124.137 38.7758 122.538 46.539 121.109 56.497C120.93 57.5289 120.778 59.002 120.651 60.9163C120.524 62.8305 120.419 64.8286 120.336 66.9106C120.253 68.9925 120.243 71.0106 120.306 72.9649C120.452 74.8973 120.668 76.4085 120.953 77.4986C121.128 78.1694 121.343 78.6506 121.599 78.9422C121.938 79.2119 122.213 79.4086 122.425 79.5325C123.551 78.7008 124.783 76.901 126.12 74.1331C127.457 71.3652 129.231 67.1843 131.442 61.5903C131.974 60.1973 132.587 58.6037 133.283 56.8096C134.063 54.9935 134.82 53.0936 135.556 51.1098C136.27 49.0422 136.889 46.9546 137.413 44.847C138.021 42.7174 138.42 40.6426 138.609 38.6226C138.681 37.5288 138.794 36.2453 138.946 34.7722C139.161 33.1934 139.448 31.5507 139.808 29.8442C140.253 28.1158 140.781 26.3655 141.392 24.5932C142.066 22.7152 142.941 20.9192 144.016 19.2051C145.106 18.9203 146.312 18.7394 147.636 18.6623C148.959 18.5852 150.221 18.6139 151.421 18.7483C152.682 18.777 153.798 18.9334 154.768 19.2174C155.716 19.4176 156.465 19.7144 157.016 20.108C156.471 24.1919 155.747 28.2776 154.844 32.3652C153.941 36.4528 153.154 40.4656 152.481 44.4037C151.786 48.2579 151.342 52.0463 151.15 55.7691C150.959 59.4918 151.29 62.9883 152.144 66.2585C152.604 68.0194 153.136 69.5378 153.738 70.8137C154.402 71.9838 155.022 72.9863 155.598 73.821C156.153 74.5719 156.632 75.2079 157.037 75.7292C157.526 76.2285 157.825 76.6878 157.935 77.1071C157.957 77.1909 157.906 77.3386 157.782 77.5501C157.72 77.6559 157.647 77.7197 157.563 77.7416C156.976 77.895 156.189 77.9664 155.201 77.9558C154.212 77.9453 153.066 77.8418 151.76 77.6454C150.561 77.5109 149.297 77.3036 147.97 77.0234C146.727 76.7212 145.514 76.3662 144.333 75.9583Z" fill="#21BEEB"/>
</g>
<g filter="url(#filter3_di_0_1)">
<path d="M177.762 11.7255C180.117 11.8449 182.558 12.8364 185.086 14.7C187.592 16.4795 189.658 18.6387 191.284 21.1775C190.934 23.6798 190.196 26.7718 189.072 30.4535C187.947 34.1352 186.844 37.9009 185.762 41.7506C184.658 45.5163 183.691 49.1134 182.86 52.542C182.092 55.8654 181.826 58.5251 182.063 60.5213C183.046 58.7529 184.102 56.7425 185.231 54.4901C186.422 52.1325 187.54 49.8382 188.585 47.6071C189.692 45.2707 190.727 43.1763 191.688 41.3238C192.629 39.3873 193.381 37.9453 193.946 36.9978C195.117 34.9135 196.519 32.5027 198.15 29.7655C199.761 26.9443 201.498 24.2698 203.361 21.7421C205.288 19.1091 207.299 16.8123 209.396 14.8514C211.471 12.8066 213.516 11.5291 215.533 11.0189C217.717 10.4661 219.715 10.7652 221.526 11.9161C223.4 12.9618 224.959 14.1765 226.203 15.5603C226.245 15.7283 225.973 16.0654 225.386 16.5716C224.862 16.9724 224.181 17.9938 223.345 19.6358C222.552 21.4457 221.739 23.8863 220.907 26.9576C220.138 29.9236 219.432 33.1416 218.79 36.6117C218.211 39.9766 217.864 43.3723 217.747 46.7988C217.631 50.2254 217.902 53.241 218.561 55.8455C219.093 57.946 219.685 59.2265 220.338 59.6871C221.075 60.1264 221.948 60.2185 222.956 59.9634C223.88 59.7296 224.793 59.275 225.695 58.5998C226.597 57.9246 227.342 57.5126 227.93 57.3638C228.309 57.4468 228.656 57.7611 228.973 58.3067C229.353 58.7471 229.596 59.1773 229.702 59.5974C229.179 60.3556 228.529 61.1457 227.754 61.9677C226.979 62.7896 226.151 63.5802 225.27 64.3395C224.389 65.0987 223.487 65.7739 222.564 66.3651C221.725 66.935 220.927 67.3156 220.171 67.507C217.735 68.1235 215.622 68.2556 213.835 67.9034C212.152 67.6139 210.7 66.9979 209.478 66.0555C208.341 65.0919 207.402 63.8544 206.662 62.343C205.9 60.7477 205.286 59.0258 204.818 57.1774C204.563 56.1692 204.36 55.0137 204.209 53.7109C204.058 52.4081 204.022 50.8527 204.101 49.0448C204.159 47.1528 204.352 44.9137 204.681 42.3273C204.989 39.6569 205.432 36.4606 206.01 32.7385C205.842 32.781 204.856 33.6561 203.053 35.3638C201.251 37.0716 199.439 39.452 197.619 42.5051C194.627 47.2851 192.002 51.9274 189.745 56.4321C187.572 60.9155 185.421 65.8403 183.292 71.2064C182.102 74.2787 181.017 76.8777 180.035 79.0035C179.158 81.1921 178.29 82.708 177.431 83.5513C175.411 82.9895 173.748 81.8907 172.44 80.2548C171.153 78.703 170.055 77.0141 169.146 75.1879C168.742 73.5916 168.442 71.522 168.246 68.9791C168.133 66.415 168.083 63.567 168.095 60.435C168.17 57.1977 168.381 53.7919 168.728 50.2176C169.075 46.6432 169.549 43.0369 170.148 39.3988C171.47 31.1973 172.902 24.6666 174.443 19.8066C176.069 14.9254 177.175 12.2317 177.762 11.7255Z" fill="url(#paint0_linear_0_1)"/>
</g>
<defs>
<filter id="filter0_di_0_1" x="150.445" y="77.0161" width="786.682" height="90.3359" filterUnits="userSpaceOnUse" color-interpolation-filters="sRGB">
<feFlood flood-opacity="0" result="BackgroundImageFix"/>
<feColorMatrix in="SourceAlpha" type="matrix" values="0 0 0 0 0 0 0 0 0 0 0 0 0 0 0 0 0 0 127 0" result="hardAlpha"/>
<feOffset dy="0.379587"/>
<feGaussianBlur stdDeviation="0.265711"/>
<feComposite in2="hardAlpha" operator="out"/>
<feColorMatrix type="matrix" values="0 0 0 0 0 0 0 0 0 0 0 0 0 0 0 0 0 0 0.48 0"/>
<feBlend mode="normal" in2="BackgroundImageFix" result="effect1_dropShadow_0_1"/>
<feBlend mode="normal" in="SourceGraphic" in2="effect1_dropShadow_0_1" result="shape"/>
<feColorMatrix in="SourceAlpha" type="matrix" values="0 0 0 0 0 0 0 0 0 0 0 0 0 0 0 0 0 0 127 0" result="hardAlpha"/>
<feOffset dy="4"/>
<feGaussianBlur stdDeviation="2"/>
<feComposite in2="hardAlpha" operator="arithmetic" k2="-1" k3="1"/>
<feColorMatrix type="matrix" values="0 0 0 0 0 0 0 0 0 0 0 0 0 0 0 0 0 0 0.5 0"/>
<feBlend mode="normal" in2="shape" result="effect2_innerShadow_0_1"/>
</filter>
<filter id="filter1_di_0_1" x="0.324536" y="21.1707" width="106.525" height="133.943" filterUnits="userSpaceOnUse" color-interpolation-filters="sRGB">
<feFlood flood-opacity="0" result="BackgroundImageFix"/>
<feColorMatrix in="SourceAlpha" type="matrix" values="0 0 0 0 0 0 0 0 0 0 0 0 0 0 0 0 0 0 127 0" result="hardAlpha"/>
<feOffset dy="0.379587"/>
<feGaussianBlur stdDeviation="0.265711"/>
<feComposite in2="hardAlpha" operator="out"/>
<feColorMatrix type="matrix" values="0 0 0 0 0 0 0 0 0 0 0 0 0 0 0 0 0 0 0.48 0"/>
<feBlend mode="normal" in2="BackgroundImageFix" result="effect1_dropShadow_0_1"/>
<feBlend mode="normal" in="SourceGraphic" in2="effect1_dropShadow_0_1" result="shape"/>
<feColorMatrix in="SourceAlpha" type="matrix" values="0 0 0 0 0 0 0 0 0 0 0 0 0 0 0 0 0 0 127 0" result="hardAlpha"/>
<feOffset dy="4"/>
<feGaussianBlur stdDeviation="2"/>
<feComposite in2="hardAlpha" operator="arithmetic" k2="-1" k3="1"/>
<feColorMatrix type="matrix" values="0 0 0 0 0 0 0 0 0 0 0 0 0 0 0 0 0 0 0.5 0"/>
<feBlend mode="normal" in2="shape" result="effect2_innerShadow_0_1"/>
</filter>
<filter id="filter2_di_0_1" x="93.2264" y="12.2837" width="78.5509" height="82.2903" filterUnits="userSpaceOnUse" color-interpolation-filters="sRGB">
<feFlood flood-opacity="0" result="BackgroundImageFix"/>
<feColorMatrix in="SourceAlpha" type="matrix" values="0 0 0 0 0 0 0 0 0 0 0 0 0 0 0 0 0 0 127 0" result="hardAlpha"/>
<feOffset dy="0.379587"/>
<feGaussianBlur stdDeviation="0.265711"/>
<feComposite in2="hardAlpha" operator="out"/>
<feColorMatrix type="matrix" values="0 0 0 0 0 0 0 0 0 0 0 0 0 0 0 0 0 0 0.48 0"/>
<feBlend mode="normal" in2="BackgroundImageFix" result="effect1_dropShadow_0_1"/>
<feBlend mode="normal" in="SourceGraphic" in2="effect1_dropShadow_0_1" result="shape"/>
<feColorMatrix in="SourceAlpha" type="matrix" values="0 0 0 0 0 0 0 0 0 0 0 0 0 0 0 0 0 0 127 0" result="hardAlpha"/>
<feOffset dy="4"/>
<feGaussianBlur stdDeviation="2"/>
<feComposite in2="hardAlpha" operator="arithmetic" k2="-1" k3="1"/>
<feColorMatrix type="matrix" values="0 0 0 0 0 0 0 0 0 0 0 0 0 0 0 0 0 0 0.5 0"/>
<feBlend mode="normal" in2="shape" result="effect2_innerShadow_0_1"/>
</filter>
<filter id="filter3_di_0_1" x="154.042" y="0.284933" width="85.9266" height="88.7331" filterUnits="userSpaceOnUse" color-interpolation-filters="sRGB">
<feFlood flood-opacity="0" result="BackgroundImageFix"/>
<feColorMatrix in="SourceAlpha" type="matrix" values="0 0 0 0 0 0 0 0 0 0 0 0 0 0 0 0 0 0 127 0" result="hardAlpha"/>
<feOffset dy="0.379587"/>
<feGaussianBlur stdDeviation="0.265711"/>
<feComposite in2="hardAlpha" operator="out"/>
<feColorMatrix type="matrix" values="0 0 0 0 0 0 0 0 0 0 0 0 0 0 0 0 0 0 0.48 0"/>
<feBlend mode="normal" in2="BackgroundImageFix" result="effect1_dropShadow_0_1"/>
<feBlend mode="normal" in="SourceGraphic" in2="effect1_dropShadow_0_1" result="shape"/>
<feColorMatrix in="SourceAlpha" type="matrix" values="0 0 0 0 0 0 0 0 0 0 0 0 0 0 0 0 0 0 127 0" result="hardAlpha"/>
<feOffset dy="4"/>
<feGaussianBlur stdDeviation="2"/>
<feComposite in2="hardAlpha" operator="arithmetic" k2="-1" k3="1"/>
<feColorMatrix type="matrix" values="0 0 0 0 0 0 0 0 0 0 0 0 0 0 0 0 0 0 0.5 0"/>
<feBlend mode="normal" in2="shape" result="effect2_innerShadow_0_1"/>
</filter>
<linearGradient id="paint0_linear_0_1" x1="186.5" y1="18.5002" x2="198.5" y2="68.5002" gradientUnits="userSpaceOnUse">
<stop stop-color="#E7D00B"/>
<stop offset="1" stop-color="#FFC000"/>
</linearGradient>
</defs>
</svg>
