<svg width="25" height="15" viewBox="0 0 25 15" fill="none" xmlns="http://www.w3.org/2000/svg">
<path d="M1.16319 0.656134C1.49962 0.305567 1.95584 0.108629 2.43154 0.108629C2.90725 0.108629 3.36347 0.305567 3.69989 0.656134L12.5801 9.91254L21.4604 0.656134C21.7987 0.315502 22.2519 0.127019 22.7223 0.131279C23.1926 0.13554 23.6426 0.332203 23.9752 0.678913C24.3078 1.02562 24.4965 1.49464 24.5006 1.98494C24.5047 2.47524 24.3239 2.9476 23.9971 3.30029L13.8485 13.8788C13.5121 14.2293 13.0558 14.4263 12.5801 14.4263C12.1044 14.4263 11.6482 14.2293 11.3118 13.8788L1.16319 3.30029C0.826874 2.94961 0.637939 2.47406 0.637939 1.97821C0.637939 1.48236 0.826874 1.00681 1.16319 0.656134Z" fill="#6A6A6A"/>
</svg>
