<svg width="63" height="62" viewBox="0 0 63 62" fill="none" xmlns="http://www.w3.org/2000/svg">
<g filter="url(#filter0_d_179_522)">
<path d="M48.5161 42.9531L55.606 50.0394C55.9366 50.3817 56.1196 50.8402 56.1155 51.3162C56.1113 51.7921 55.9204 52.2473 55.5839 52.5839C55.2473 52.9204 54.7921 53.1113 54.3162 53.1155C53.8402 53.1196 53.3817 52.9366 53.0394 52.606L45.9495 45.5161C41.3164 49.4856 35.3259 51.5063 29.235 51.1542C23.1442 50.8021 17.4264 48.1046 13.2816 43.6277C9.13672 39.1508 6.88696 33.2425 7.00438 27.1426C7.12179 21.0427 9.59726 15.2254 13.9113 10.9113C18.2254 6.59726 24.0427 4.12179 30.1426 4.00438C36.2425 3.88696 42.1508 6.13672 46.6277 10.2816C51.1046 14.4264 53.8021 20.1442 54.1542 26.235C54.5063 32.3259 52.4856 38.3164 48.5161 42.9495V42.9531ZM30.5971 47.5635C35.8925 47.5635 40.9711 45.4599 44.7155 41.7155C48.4599 37.9711 50.5635 32.8925 50.5635 27.5971C50.5635 22.3016 48.4599 17.2231 44.7155 13.4786C40.9711 9.73417 35.8925 7.63057 30.5971 7.63057C25.3016 7.63057 20.2231 9.73417 16.4786 13.4786C12.7342 17.2231 10.6306 22.3016 10.6306 27.5971C10.6306 32.8925 12.7342 37.9711 16.4786 41.7155C20.2231 45.4599 25.3016 47.5635 30.5971 47.5635Z" fill="white"/>
</g>
<defs>
<filter id="filter0_d_179_522" x="0.915004" y="0.301277" width="61.2855" height="61.2857" filterUnits="userSpaceOnUse" color-interpolation-filters="sRGB">
<feFlood flood-opacity="0" result="BackgroundImageFix"/>
<feColorMatrix in="SourceAlpha" type="matrix" values="0 0 0 0 0 0 0 0 0 0 0 0 0 0 0 0 0 0 127 0" result="hardAlpha"/>
<feOffset dy="2.38627"/>
<feGaussianBlur stdDeviation="3.0425"/>
<feComposite in2="hardAlpha" operator="out"/>
<feColorMatrix type="matrix" values="0 0 0 0 0 0 0 0 0 0 0 0 0 0 0 0 0 0 0.49 0"/>
<feBlend mode="normal" in2="BackgroundImageFix" result="effect1_dropShadow_179_522"/>
<feBlend mode="normal" in="SourceGraphic" in2="effect1_dropShadow_179_522" result="shape"/>
</filter>
</defs>
</svg>
